<mxfile host="app.diagrams.net" modified="2023-06-27T02:16:25.838Z" agent="Mozilla/5.0 (Macintosh; Intel Mac OS X 10_15_7) AppleWebKit/537.36 (KHTML, like Gecko) Chrome/103.0.5060.114 Safari/537.36 Edg/103.0.1264.62" version="21.5.0" etag="Fp0yLV4CZJefUfzev9xb" type="github">
  <diagram name="第 1 页" id="h1CebJNE0fcFF4PwrelH">
    <mxGraphModel>
      <root>
        <mxCell id="0" />
        <mxCell id="1" parent="0" />
      </root>
    </mxGraphModel>
  </diagram>
</mxfile>
